<svg width="36" height="36" viewBox="0 0 36 36" fill="none" xmlns="http://www.w3.org/2000/svg">
<path d="M21.9005 0.532597C21.7884 0.609688 21.445 0.91805 21.1506 1.23342C20.625 1.76605 20.604 1.8081 20.604 2.11646C20.604 2.36875 20.6461 2.48089 20.7722 2.61404C20.9754 2.81728 21.2347 2.89437 21.494 2.82429C21.7744 2.75421 22.9027 1.62588 22.9868 1.33154C23.0569 1.06522 22.9588 0.728828 22.7555 0.56063C22.5593 0.392432 22.1318 0.385424 21.9005 0.532597Z" fill="url(#paint0_linear_34717_14622)"/>
<path d="M27.8789 0.517736C27.6336 0.643885 27.5425 0.81909 27.5425 1.14147C27.5425 1.47086 27.7107 1.70914 28.005 1.80725C28.4956 1.96844 28.9441 1.65307 28.9441 1.14147C28.9441 0.812082 28.846 0.643885 28.5937 0.510728C28.3414 0.377572 28.1242 0.377572 27.8789 0.517736Z" fill="url(#paint1_linear_34717_14622)"/>
<path d="M32.8686 1.47834C32.6303 1.59748 32.4341 1.99695 32.4901 2.26327C32.5812 2.7188 33.0718 2.96409 33.5063 2.78888C34.0389 2.56462 34.06 1.74466 33.5344 1.49236C33.254 1.36621 33.0998 1.3592 32.8686 1.47834Z" fill="url(#paint2_linear_34717_14622)"/>
<path d="M18.0462 2.46642C17.9341 2.52248 15.7195 4.68802 13.1334 7.28107C8.62012 11.8224 8.42389 12.0256 8.21365 12.4952C7.72307 13.6025 7.77213 14.8079 8.35381 15.8241C8.48697 16.0554 9.04763 16.6931 9.78349 17.436C10.4773 18.1438 11.0099 18.7465 11.038 18.8517C11.066 18.9638 11.045 19.111 10.9819 19.2301C10.7997 19.5735 9.65033 20.6458 5.39634 24.4372C3.13969 26.4486 1.14234 28.2777 0.960128 28.495C0.301354 29.2729 0 30.1489 0 31.2422C0 32.0201 0.112132 32.4897 0.448527 33.1695C0.770905 33.8142 1.21242 34.3048 1.86419 34.7393C2.62108 35.2509 3.19575 35.4121 4.20494 35.4121C4.87072 35.4121 5.10199 35.3841 5.52949 35.2439C6.6438 34.8795 6.66483 34.8515 11.1711 29.7074C13.4208 27.1354 15.4391 24.8717 15.6494 24.6755C16.0629 24.3041 16.2731 24.22 16.5394 24.3181C16.6305 24.3531 17.2683 24.9348 17.9551 25.6076C19.0554 26.6869 19.2726 26.8691 19.7282 27.0863C20.7374 27.5629 21.8236 27.5699 22.8538 27.1003C23.3584 26.8761 23.4846 26.7569 28.0539 22.2086C30.633 19.6436 32.7845 17.457 32.8406 17.3519C32.8966 17.2468 32.9387 17.0576 32.9387 16.9314C32.9387 16.7212 32.378 16.1395 25.8113 9.57276C20.2678 4.03626 18.6279 2.43838 18.4667 2.41035C18.3546 2.38932 18.1653 2.41736 18.0462 2.46642ZM18.0392 7.28808C17.1071 8.22718 16.2941 9.06817 16.2311 9.16628C15.8106 9.80403 16.6025 10.596 17.2402 10.1755C17.3384 10.1124 18.1794 9.29944 19.1114 8.36735L20.8144 6.67836L21.7606 7.62447L22.7067 8.56358L20.9266 10.3577C19.1255 12.1728 19.0344 12.2849 19.1185 12.7054C19.1535 12.9227 19.4408 13.217 19.6441 13.2451C20.0295 13.3081 20.2187 13.161 21.9848 11.3949L23.7579 9.62182L24.718 10.5819L25.6852 11.5491L23.877 13.3572L22.0759 15.1723V15.4877C22.0759 15.9993 22.4894 16.3287 22.973 16.2096C23.0921 16.1815 23.8 15.5298 24.9493 14.3804L26.7364 12.6003L27.7035 13.5675L28.6637 14.5276L26.9116 16.2796C25.0474 18.1438 24.9423 18.284 25.0895 18.7255C25.1876 19.0339 25.4259 19.1881 25.8043 19.1881C26.0987 19.1881 26.1127 19.174 27.9068 17.3869L29.7149 15.5788L30.4367 16.3007L31.1516 17.0155L27.7176 20.4495L24.2835 23.8836L17.871 17.471L11.4585 11.0585L14.8925 7.62447L18.3265 4.19044L19.0273 4.89126L19.7282 5.59208L18.0392 7.28808ZM22.8118 25.3273C22.104 25.972 21.3681 26.1402 20.5622 25.8389C20.2117 25.7057 19.9945 25.5235 18.8591 24.4092C18.1443 23.7084 17.4575 23.0846 17.3454 23.0216C17.002 22.8464 16.3712 22.7552 15.9788 22.8323C15.5162 22.9234 15.1728 23.1057 14.7243 23.5051L14.3529 23.8345L12.9092 22.3908L11.4655 20.9471L11.8509 20.5406C12.3275 20.0431 12.5097 19.6085 12.5097 18.9778C12.5097 18.1578 12.3976 17.9756 10.9749 16.5249C9.51017 15.0252 9.363 14.8009 9.363 14.037C9.35599 13.4203 9.53119 13.0208 10.0288 12.4882L10.4002 12.1027L16.8127 18.5223L23.2323 24.9418L22.8118 25.3273ZM11.8719 23.4561C12.9232 24.5073 13.3156 24.9488 13.2736 25.0119C13.1474 25.2221 6.34946 32.9732 6.07614 33.2255C4.6815 34.501 2.52997 34.0735 1.72402 32.3635C1.52779 31.95 1.50677 31.8449 1.50677 31.2072C1.50677 30.5694 1.52779 30.4643 1.72402 30.0508C1.85718 29.7705 2.08845 29.4551 2.31972 29.2308C2.8103 28.7543 10.3231 22.0054 10.3722 21.9984C10.3932 21.9913 11.066 22.6501 11.8719 23.4561Z" fill="url(#paint3_linear_34717_14622)"/>
<path d="M9.22306 25.2213C8.98478 25.2914 8.67642 25.5858 6.54592 27.7864C4.98308 29.4053 4.97607 29.4193 4.97607 29.7206C4.97607 30.2743 5.52972 30.6247 5.99928 30.3794C6.30764 30.2182 10.015 26.3847 10.0991 26.1324C10.2883 25.5928 9.78372 25.0672 9.22306 25.2213Z" fill="url(#paint4_linear_34717_14622)"/>
<path d="M3.36392 31.088C2.71215 31.4104 2.97847 32.4336 3.71433 32.4336C4.50626 32.4336 4.69548 31.3123 3.9456 31.0249C3.71433 30.9408 3.64425 30.9408 3.36392 31.088Z" fill="url(#paint5_linear_34717_14622)"/>
<path d="M25.9657 2.46682C25.6574 2.60698 23.639 4.67441 23.5829 4.90568C23.5129 5.17199 23.5899 5.4313 23.7932 5.63454C23.9263 5.76769 24.0385 5.80273 24.2908 5.80273H24.6272L25.8045 4.62535C26.9539 3.476 26.9819 3.44096 26.9819 3.15362C26.9819 2.61399 26.4423 2.24956 25.9657 2.46682Z" fill="url(#paint6_linear_34717_14622)"/>
<path d="M30.9414 3.44805C30.6611 3.58121 26.6594 7.60393 26.5683 7.84922C26.3861 8.3398 26.8556 8.87943 27.3883 8.78131C27.6125 8.73926 27.9349 8.44492 29.736 6.65782C32.0277 4.37314 32.0908 4.28203 31.8665 3.79846C31.7894 3.63727 31.6563 3.51813 31.5021 3.44805C31.2148 3.32891 31.2078 3.32891 30.9414 3.44805Z" fill="url(#paint7_linear_34717_14622)"/>
<path d="M34.6838 5.58518C34.4105 5.86551 34.3965 6.32805 34.6558 6.59437C35.1323 7.06392 35.8822 6.76256 35.8822 6.10379C35.8822 5.66928 35.6019 5.38194 35.1814 5.38194C34.9501 5.38194 34.845 5.42399 34.6838 5.58518Z" fill="url(#paint8_linear_34717_14622)"/>
<path d="M31.2079 9.04758C29.5329 10.7155 29.5049 10.7506 29.5049 11.0379C29.5049 11.2552 29.5539 11.3743 29.7081 11.5425C29.8833 11.7247 29.9604 11.7598 30.2478 11.7598H30.5771L32.147 10.1969C33.016 9.34193 33.7659 8.557 33.822 8.45188C34.1023 7.91225 33.7589 7.34458 33.1351 7.34458C32.9319 7.34458 32.7357 7.51278 31.2079 9.04758Z" fill="url(#paint9_linear_34717_14622)"/>
<path d="M33.184 12.9639C32.4622 13.6857 32.3711 13.8889 32.5463 14.3094C32.6724 14.6178 33.0228 14.793 33.3662 14.7229C33.6115 14.6739 34.3684 14.0081 34.7048 13.5525C35.1253 12.9709 34.845 12.3191 34.1582 12.3191C33.8358 12.3191 33.8148 12.3331 33.184 12.9639Z" fill="url(#paint10_linear_34717_14622)"/>
<defs>
<linearGradient id="paint0_linear_34717_14622" x1="21.8067" y1="2.84961" x2="21.8067" y2="0.427984" gradientUnits="userSpaceOnUse">
<stop offset="0.452535" stop-color="#FFA588"/>
<stop offset="1" stop-color="#F36A3E"/>
</linearGradient>
<linearGradient id="paint1_linear_34717_14622" x1="28.2433" y1="1.84961" x2="28.2433" y2="0.41172" gradientUnits="userSpaceOnUse">
<stop offset="0.452535" stop-color="#FFA588"/>
<stop offset="1" stop-color="#F36A3E"/>
</linearGradient>
<linearGradient id="paint2_linear_34717_14622" x1="33.1989" y1="2.8457" x2="33.1989" y2="1.3932" gradientUnits="userSpaceOnUse">
<stop offset="0.452535" stop-color="#FFA588"/>
<stop offset="1" stop-color="#F36A3E"/>
</linearGradient>
<linearGradient id="paint3_linear_34717_14622" x1="16.4693" y1="35.4121" x2="16.4693" y2="2.40329" gradientUnits="userSpaceOnUse">
<stop offset="0.452535" stop-color="#FFA588"/>
<stop offset="1" stop-color="#F36A3E"/>
</linearGradient>
<linearGradient id="paint4_linear_34717_14622" x1="7.55783" y1="30.459" x2="7.55783" y2="25.1941" gradientUnits="userSpaceOnUse">
<stop offset="0.452535" stop-color="#FFA588"/>
<stop offset="1" stop-color="#F36A3E"/>
</linearGradient>
<linearGradient id="paint5_linear_34717_14622" x1="3.70622" y1="32.4336" x2="3.70622" y2="30.9681" gradientUnits="userSpaceOnUse">
<stop offset="0.452535" stop-color="#FFA588"/>
<stop offset="1" stop-color="#F36A3E"/>
</linearGradient>
<linearGradient id="paint6_linear_34717_14622" x1="25.2698" y1="5.80273" x2="25.2698" y2="2.40301" gradientUnits="userSpaceOnUse">
<stop offset="0.452535" stop-color="#FFA588"/>
<stop offset="1" stop-color="#F36A3E"/>
</linearGradient>
<linearGradient id="paint7_linear_34717_14622" x1="29.2402" y1="8.79297" x2="29.2402" y2="3.3587" gradientUnits="userSpaceOnUse">
<stop offset="0.452535" stop-color="#FFA588"/>
<stop offset="1" stop-color="#F36A3E"/>
</linearGradient>
<linearGradient id="paint8_linear_34717_14622" x1="35.176" y1="6.82227" x2="35.176" y2="5.38194" gradientUnits="userSpaceOnUse">
<stop offset="0.452535" stop-color="#FFA588"/>
<stop offset="1" stop-color="#F36A3E"/>
</linearGradient>
<linearGradient id="paint9_linear_34717_14622" x1="31.7128" y1="11.7598" x2="31.7128" y2="7.34458" gradientUnits="userSpaceOnUse">
<stop offset="0.452535" stop-color="#FFA588"/>
<stop offset="1" stop-color="#F36A3E"/>
</linearGradient>
<linearGradient id="paint10_linear_34717_14622" x1="33.6863" y1="14.7383" x2="33.6863" y2="12.3191" gradientUnits="userSpaceOnUse">
<stop offset="0.452535" stop-color="#FFA588"/>
<stop offset="1" stop-color="#F36A3E"/>
</linearGradient>
</defs>
</svg>
