<svg width="84" height="84" viewBox="0 0 84 84" fill="none" xmlns="http://www.w3.org/2000/svg">
<g clip-path="url(#clip0_34717_15857)">
<path opacity="0.1" d="M18.459 36.75C22.0932 36.75 25.6459 37.8277 28.6676 39.8467C31.6894 41.8658 34.0445 44.7356 35.4353 48.0932C36.826 51.4508 37.1899 55.1454 36.4809 58.7098C35.7719 62.2742 34.0219 65.5483 31.4521 68.1181C28.8823 70.6879 25.6082 72.4379 22.0438 73.1469C18.4794 73.8559 14.7848 73.4921 11.4272 72.1013C8.0696 70.7105 5.19982 68.3554 3.18075 65.3336C1.16167 62.3119 0.084 58.7592 0.084 55.125L0 52.5C0 42.7533 3.87186 33.4058 10.7638 26.5138C17.6558 19.6219 27.0033 15.75 36.75 15.75V26.25C33.3013 26.2407 29.8849 26.9152 26.6985 28.2345C23.5121 29.5538 20.6188 31.4916 18.186 33.936C17.2404 34.8798 16.3682 35.8942 15.5767 36.9705C16.5165 36.8235 17.4773 36.7448 18.4538 36.7448L18.459 36.75ZM65.709 36.75C69.3432 36.75 72.8959 37.8277 75.9176 39.8467C78.9394 41.8658 81.2945 44.7356 82.6853 48.0932C84.076 51.4508 84.4399 55.1454 83.7309 58.7098C83.0219 62.2742 81.2719 65.5483 78.7021 68.1181C76.1323 70.6879 72.8582 72.4379 69.2938 73.1469C65.7294 73.8559 62.0348 73.4921 58.6772 72.1013C55.3196 70.7105 52.4498 68.3554 50.4307 65.3336C48.4117 62.3119 47.334 58.7592 47.334 55.125L47.25 52.5C47.25 42.7533 51.1219 33.4058 58.0138 26.5138C64.9058 19.6219 74.2533 15.75 84 15.75V26.25C80.5513 26.2407 77.1349 26.9152 73.9485 28.2345C70.7621 29.5538 67.8688 31.4916 65.436 33.936C64.4904 34.8798 63.6182 35.8942 62.8268 36.9705C63.7665 36.8235 64.7272 36.75 65.709 36.75Z" fill="#F36A3E"/>
</g>
<defs>
<clipPath id="clip0_34717_15857">
<rect width="84" height="84" fill="white"/>
</clipPath>
</defs>
</svg>
