<svg width="27" height="26" viewBox="0 0 27 26" fill="none" xmlns="http://www.w3.org/2000/svg">
<path d="M13.5741 18.3346C14.9885 18.3346 16.3451 17.7727 17.3453 16.7725C18.3455 15.7723 18.9074 14.4158 18.9074 13.0013C18.9074 11.5868 18.3455 10.2303 17.3453 9.23007C16.3451 8.22987 14.9885 7.66797 13.5741 7.66797C12.1596 7.66797 10.803 8.22987 9.80282 9.23007C8.80263 10.2303 8.24072 11.5868 8.24072 13.0013C8.24072 14.4158 8.80263 15.7723 9.80282 16.7725C10.803 17.7727 12.1596 18.3346 13.5741 18.3346Z" stroke="#FAFAFA" stroke-width="1.5" stroke-linecap="round" stroke-linejoin="round"/>
<path d="M1.57422 18.3333V7.66667C1.57422 5.89856 2.2766 4.20286 3.52684 2.95262C4.77708 1.70238 6.47278 1 8.24089 1H18.9076C20.6757 1 22.3714 1.70238 23.6216 2.95262C24.8718 4.20286 25.5742 5.89856 25.5742 7.66667V18.3333C25.5742 20.1014 24.8718 21.7971 23.6216 23.0474C22.3714 24.2976 20.6757 25 18.9076 25H8.24089C6.47278 25 4.77708 24.2976 3.52684 23.0474C2.2766 21.7971 1.57422 20.1014 1.57422 18.3333Z" stroke="#FAFAFA" stroke-width="1.5"/>
<path d="M20.9077 5.67873L20.921 5.66406" stroke="#FAFAFA" stroke-width="1.5" stroke-linecap="round" stroke-linejoin="round"/>
</svg>
