<svg width="35" height="36" viewBox="0 0 35 36" fill="none" xmlns="http://www.w3.org/2000/svg">
<path d="M1.55132 1.0641C1.148 1.21457 0.689995 1.55655 0.437065 1.90538C-0.0414505 2.56198 -0.00727085 1.38556 0.00640102 16.4875L0.0269088 30.1326L0.197807 30.4746C0.409721 30.9123 0.888237 31.3911 1.32574 31.6031L1.66753 31.7741L9.76812 31.7946L17.8687 31.8151L18.2447 32.3281C18.73 33.0052 19.7281 33.9491 20.4459 34.4279C22.0523 35.4949 23.6861 35.9805 25.6207 35.9805C26.7486 35.9805 27.6168 35.8505 28.5669 35.5291C31.7867 34.4552 34.2134 31.6168 34.7535 28.3201C34.8902 27.4788 34.8834 25.933 34.7466 25.1396C34.1793 21.8293 31.7662 19.0318 28.5669 17.9649C27.5621 17.6297 26.7964 17.5134 25.6138 17.5134H24.6021L24.5884 10.0719L24.5679 2.63722L24.397 2.29523C24.1851 1.8575 23.7066 1.37872 23.2691 1.16669L22.9273 0.995705L12.3658 0.982025C3.54058 0.975186 1.76324 0.988862 1.55132 1.0641ZM22.4283 3.13651C22.4966 3.20491 22.524 4.66175 22.5377 10.6122L22.5513 17.9991L22.3394 18.0743C21.8951 18.2248 20.9244 18.7377 20.398 19.0934L19.8511 19.4627L14.3482 19.4833C9.35796 19.5038 8.8316 19.5175 8.65386 19.62C8.35308 19.7979 8.19585 20.1125 8.19585 20.5297C8.19585 20.9401 8.33257 21.2068 8.64703 21.4189C8.83843 21.542 9.05035 21.5488 13.3775 21.5488C15.8658 21.5488 17.9029 21.5557 17.9029 21.5693C17.9029 21.583 17.7662 21.8361 17.5953 22.137C17.4244 22.4311 17.1988 22.8826 17.0962 23.1356L16.9117 23.6007H12.8785C9.04351 23.6007 8.83843 23.6076 8.64703 23.7307C8.33257 23.9427 8.19585 24.2026 8.19585 24.6267C8.19585 25.0507 8.33257 25.3106 8.64703 25.5227C8.83843 25.6458 9.03667 25.6526 12.6255 25.6526H16.399V26.658C16.399 27.725 16.5152 28.6279 16.7339 29.3392L16.8638 29.7564L9.55621 29.7427C3.6773 29.729 2.23492 29.7017 2.16656 29.6333C2.09136 29.558 2.07085 27.1026 2.05718 16.5696C2.05035 9.43582 2.05718 3.49217 2.07769 3.36906C2.10503 3.22543 2.17339 3.12283 2.2691 3.08179C2.35796 3.0476 6.69195 3.02708 12.3794 3.03392C20.4459 3.0476 22.3531 3.06128 22.4283 3.13651ZM26.4136 19.6611C27.7808 19.7705 29.3189 20.4682 30.4605 21.5078C31.3765 22.3422 32.2037 23.7238 32.5455 24.9686C32.6822 25.4679 32.7027 25.7142 32.7027 26.747C32.7027 28.1422 32.5933 28.6689 32.0806 29.7496C31.356 31.2816 30.1939 32.4512 28.6695 33.1831C25.5318 34.6809 21.8335 33.696 19.7828 30.8165C19.3726 30.2488 18.9078 29.2434 18.7095 28.5253C18.5728 28.0191 18.5523 27.7866 18.5523 26.747C18.5523 25.3585 18.6617 24.8319 19.1607 23.7649C19.564 22.9168 19.9468 22.3696 20.5962 21.713C21.8062 20.5092 23.358 19.7774 24.9986 19.6406C25.3267 19.6132 25.6685 19.5995 25.7642 19.6064C25.8599 19.62 26.1539 19.6406 26.4136 19.6611Z" fill="url(#paint0_linear_34717_14654)"/>
<path d="M4.54541 7.31634C4.23096 7.52837 4.09424 7.78828 4.09424 8.21234C4.09424 8.8621 4.47021 9.23828 5.11963 9.23828C5.76904 9.23828 6.14502 8.8621 6.14502 8.21234C6.14502 7.56257 5.76904 7.18639 5.11963 7.18639C4.8667 7.18639 4.68213 7.22743 4.54541 7.31634Z" fill="url(#paint1_linear_34717_14654)"/>
<path d="M8.64697 7.31634C8.33252 7.52837 8.1958 7.78828 8.1958 8.21234C8.1958 8.63639 8.33252 8.8963 8.64697 9.10833C8.83838 9.23144 9.0708 9.23828 14.3481 9.23828C19.6255 9.23828 19.8579 9.23144 20.0493 9.10833C20.3638 8.8963 20.5005 8.63639 20.5005 8.21234C20.5005 7.78828 20.3638 7.52837 20.0493 7.31634C19.8579 7.19323 19.6255 7.18639 14.3481 7.18639C9.0708 7.18639 8.83838 7.19323 8.64697 7.31634Z" fill="url(#paint2_linear_34717_14654)"/>
<path d="M4.54541 11.4199C4.23096 11.6319 4.09424 11.8918 4.09424 12.3159C4.09424 12.9656 4.47021 13.3418 5.11963 13.3418C5.76904 13.3418 6.14502 12.9656 6.14502 12.3159C6.14502 11.6661 5.76904 11.2899 5.11963 11.2899C4.8667 11.2899 4.68213 11.3309 4.54541 11.4199Z" fill="url(#paint3_linear_34717_14654)"/>
<path d="M8.64697 11.4199C8.33252 11.6319 8.1958 11.8918 8.1958 12.3159C8.1958 12.7399 8.33252 12.9998 8.64697 13.2118C8.83838 13.335 9.0708 13.3418 14.3481 13.3418C19.6255 13.3418 19.8579 13.335 20.0493 13.2118C20.3638 12.9998 20.5005 12.7399 20.5005 12.3159C20.5005 11.8918 20.3638 11.6319 20.0493 11.4199C19.8579 11.2967 19.6255 11.2899 14.3481 11.2899C9.0708 11.2899 8.83838 11.2967 8.64697 11.4199Z" fill="url(#paint4_linear_34717_14654)"/>
<path d="M4.54541 15.5234C4.23096 15.7354 4.09424 15.9953 4.09424 16.4194C4.09424 17.0691 4.47021 17.4453 5.11963 17.4453C5.76904 17.4453 6.14502 17.0691 6.14502 16.4194C6.14502 15.7696 5.76904 15.3934 5.11963 15.3934C4.8667 15.3934 4.68213 15.4345 4.54541 15.5234Z" fill="url(#paint5_linear_34717_14654)"/>
<path d="M8.64697 15.5234C8.33252 15.7354 8.1958 15.9953 8.1958 16.4194C8.1958 16.8434 8.33252 17.1033 8.64697 17.3154C8.83838 17.4385 9.0708 17.4453 14.3481 17.4453C19.6255 17.4453 19.8579 17.4385 20.0493 17.3154C20.3638 17.1033 20.5005 16.8434 20.5005 16.4194C20.5005 15.9953 20.3638 15.7354 20.0493 15.5234C19.8579 15.4003 19.6255 15.3934 14.3481 15.3934C9.0708 15.3934 8.83838 15.4003 8.64697 15.5234Z" fill="url(#paint6_linear_34717_14654)"/>
<path d="M4.54541 19.6269C4.23096 19.8389 4.09424 20.0988 4.09424 20.5229C4.09424 21.1726 4.47021 21.5488 5.11963 21.5488C5.76904 21.5488 6.14502 21.1726 6.14502 20.5229C6.14502 19.8731 5.76904 19.4969 5.11963 19.4969C4.8667 19.4969 4.68213 19.538 4.54541 19.6269Z" fill="url(#paint7_linear_34717_14654)"/>
<path d="M4.54541 23.7304C4.23096 23.9424 4.09424 24.2023 4.09424 24.6264C4.09424 25.2762 4.47021 25.6523 5.11963 25.6523C5.76904 25.6523 6.14502 25.2762 6.14502 24.6264C6.14502 23.9766 5.76904 23.6005 5.11963 23.6005C4.8667 23.6005 4.68213 23.6415 4.54541 23.7304Z" fill="url(#paint8_linear_34717_14654)"/>
<path d="M25.0532 21.6794C24.6157 21.9735 24.6021 22.0213 24.6021 23.9228V25.6532H23.3921C22.0522 25.6532 21.936 25.6874 21.6558 26.1046C21.478 26.3713 21.478 26.9869 21.6558 27.2537C21.9497 27.6982 21.9771 27.7051 24.0894 27.7051C26.2017 27.7051 26.229 27.6982 26.5229 27.2537C26.646 27.069 26.6528 26.8912 26.6528 24.6272C26.6528 22.3633 26.646 22.1855 26.5229 22.0008C26.311 21.6862 26.0513 21.5494 25.6274 21.5494C25.3745 21.5494 25.1899 21.5904 25.0532 21.6794Z" fill="url(#paint9_linear_34717_14654)"/>
<defs>
<linearGradient id="paint0_linear_34717_14654" x1="17.4263" y1="35.9805" x2="17.4263" y2="0.980469" gradientUnits="userSpaceOnUse">
<stop offset="0.452535" stop-color="#FFA588"/>
<stop offset="1" stop-color="#F36A3E"/>
</linearGradient>
<linearGradient id="paint1_linear_34717_14654" x1="5.11963" y1="9.23828" x2="5.11963" y2="7.18639" gradientUnits="userSpaceOnUse">
<stop offset="0.452535" stop-color="#FFA588"/>
<stop offset="1" stop-color="#F36A3E"/>
</linearGradient>
<linearGradient id="paint2_linear_34717_14654" x1="14.3481" y1="9.23828" x2="14.3481" y2="7.18639" gradientUnits="userSpaceOnUse">
<stop offset="0.452535" stop-color="#FFA588"/>
<stop offset="1" stop-color="#F36A3E"/>
</linearGradient>
<linearGradient id="paint3_linear_34717_14654" x1="5.11963" y1="13.3418" x2="5.11963" y2="11.2899" gradientUnits="userSpaceOnUse">
<stop offset="0.452535" stop-color="#FFA588"/>
<stop offset="1" stop-color="#F36A3E"/>
</linearGradient>
<linearGradient id="paint4_linear_34717_14654" x1="14.3481" y1="13.3418" x2="14.3481" y2="11.2899" gradientUnits="userSpaceOnUse">
<stop offset="0.452535" stop-color="#FFA588"/>
<stop offset="1" stop-color="#F36A3E"/>
</linearGradient>
<linearGradient id="paint5_linear_34717_14654" x1="5.11963" y1="17.4453" x2="5.11963" y2="15.3934" gradientUnits="userSpaceOnUse">
<stop offset="0.452535" stop-color="#FFA588"/>
<stop offset="1" stop-color="#F36A3E"/>
</linearGradient>
<linearGradient id="paint6_linear_34717_14654" x1="14.3481" y1="17.4453" x2="14.3481" y2="15.3934" gradientUnits="userSpaceOnUse">
<stop offset="0.452535" stop-color="#FFA588"/>
<stop offset="1" stop-color="#F36A3E"/>
</linearGradient>
<linearGradient id="paint7_linear_34717_14654" x1="5.11963" y1="21.5488" x2="5.11963" y2="19.4969" gradientUnits="userSpaceOnUse">
<stop offset="0.452535" stop-color="#FFA588"/>
<stop offset="1" stop-color="#F36A3E"/>
</linearGradient>
<linearGradient id="paint8_linear_34717_14654" x1="5.11963" y1="25.6523" x2="5.11963" y2="23.6005" gradientUnits="userSpaceOnUse">
<stop offset="0.452535" stop-color="#FFA588"/>
<stop offset="1" stop-color="#F36A3E"/>
</linearGradient>
<linearGradient id="paint9_linear_34717_14654" x1="24.0876" y1="27.7051" x2="24.0876" y2="21.5494" gradientUnits="userSpaceOnUse">
<stop offset="0.452535" stop-color="#FFA588"/>
<stop offset="1" stop-color="#F36A3E"/>
</linearGradient>
</defs>
</svg>
