<svg width="35" height="36" viewBox="0 0 35 36" fill="none" xmlns="http://www.w3.org/2000/svg">
<path d="M2.02474 1.00693C1.21074 1.30107 0.60879 1.84829 0.218891 2.64177L0 3.09324V18.3814V33.6696L0.218891 34.121C0.615631 34.935 1.23126 35.4754 2.05894 35.7559C2.45568 35.8927 2.65405 35.8927 17.6139 35.879L32.7652 35.8585L33.244 35.6259C33.8734 35.3181 34.4137 34.7777 34.7216 34.1484L34.9541 33.6696V18.3814V3.09324L34.7216 2.61441C34.4137 1.9851 33.8734 1.44471 33.244 1.1369L32.7652 0.904327L17.5797 0.890648C2.7293 0.876965 2.38728 0.876965 2.02474 1.00693ZM32.389 3.10692C32.519 3.189 32.69 3.36001 32.7652 3.48314C32.8952 3.69519 32.902 3.85251 32.9226 6.39028L32.9431 9.07854H17.4771H2.01106L2.03158 6.39028C2.0521 3.76359 2.0521 3.70203 2.20259 3.46946C2.36676 3.20268 2.56513 3.05904 2.87294 2.98379C2.98923 2.95643 9.61752 2.94275 17.6139 2.94275L32.1496 2.95643L32.389 3.10692ZM32.9226 22.0889C32.902 32.9171 32.902 33.0539 32.7652 33.2797C32.69 33.4028 32.519 33.5738 32.389 33.6559L32.1496 33.8064H17.4771H2.80454L2.56513 33.6559C2.43516 33.5738 2.26415 33.4028 2.18891 33.2797C2.0521 33.0539 2.0521 32.9171 2.03158 22.0889L2.0179 11.1306H17.4771H32.9362L32.9226 22.0889Z" fill="url(#paint0_linear_34717_14645)"/>
<path d="M6.64189 5.10521C6.32724 5.31726 6.19043 5.57719 6.19043 6.00129C6.19043 6.65113 6.56665 7.02734 7.21648 7.02734C7.86631 7.02734 8.24253 6.65113 8.24253 6.00129C8.24253 5.35146 7.86631 4.97524 7.21648 4.97524C6.96339 4.97524 6.7787 5.01628 6.64189 5.10521Z" fill="url(#paint1_linear_34717_14645)"/>
<path d="M10.7464 5.10521C10.4317 5.31726 10.2949 5.57719 10.2949 6.00129C10.2949 6.65113 10.6711 7.02734 11.321 7.02734C11.9708 7.02734 12.347 6.65113 12.347 6.00129C12.347 5.35146 11.9708 4.97524 11.321 4.97524C11.0679 4.97524 10.8832 5.01628 10.7464 5.10521Z" fill="url(#paint2_linear_34717_14645)"/>
<path d="M14.8504 5.10521C14.5357 5.31726 14.3989 5.57719 14.3989 6.00129C14.3989 6.65113 14.7751 7.02734 15.425 7.02734C16.0748 7.02734 16.451 6.65113 16.451 6.00129C16.451 5.35146 16.0748 4.97524 15.425 4.97524C15.1719 4.97524 14.9872 5.01628 14.8504 5.10521Z" fill="url(#paint3_linear_34717_14645)"/>
<path d="M6.64189 13.3121C6.53929 13.3805 6.3888 13.531 6.3204 13.6336C6.19727 13.8183 6.19043 14.0167 6.19043 17.3206C6.19043 20.6245 6.19727 20.8228 6.3204 21.0075C6.3888 21.1101 6.53929 21.2606 6.64189 21.329C6.83342 21.4521 7.17544 21.459 17.5112 21.459C27.8469 21.459 28.189 21.4521 28.3805 21.329C28.4831 21.2606 28.6336 21.1101 28.702 21.0075C28.8251 20.8228 28.832 20.6245 28.832 17.3206C28.832 14.0167 28.8251 13.8183 28.702 13.6336C28.6336 13.531 28.4831 13.3805 28.3805 13.3121C28.189 13.189 27.8469 13.1822 17.5112 13.1822C7.17544 13.1822 6.83342 13.189 6.64189 13.3121ZM26.7799 17.3206V19.4069H17.5112H8.24253V17.3206V15.2343H17.5112H26.7799V17.3206Z" fill="url(#paint4_linear_34717_14645)"/>
<path d="M6.64189 23.6422C6.53929 23.7106 6.3888 23.8611 6.3204 23.9637C6.19727 24.1484 6.19043 24.3468 6.19043 27.6507C6.19043 30.9545 6.19727 31.1529 6.3204 31.3376C6.3888 31.4402 6.53929 31.5907 6.64189 31.6591C6.83342 31.7822 7.06599 31.7891 12.3467 31.7891C17.6275 31.7891 17.86 31.7822 18.0516 31.6591C18.1542 31.5907 18.3047 31.4402 18.3731 31.3376C18.4962 31.1529 18.503 30.9545 18.503 27.6507C18.503 24.3468 18.4962 24.1484 18.3731 23.9637C18.3047 23.8611 18.1542 23.7106 18.0516 23.6422C17.86 23.5191 17.6275 23.5123 12.3467 23.5123C7.06599 23.5123 6.83342 23.5191 6.64189 23.6422ZM16.4509 27.6507V29.737H12.3467H8.24253V27.6507V25.5644H12.3467H16.4509V27.6507Z" fill="url(#paint5_linear_34717_14645)"/>
<path d="M21.0066 23.6422C20.904 23.7106 20.7535 23.8611 20.6851 23.9637C20.562 24.1484 20.5552 24.3468 20.5552 27.6507C20.5552 30.9545 20.562 31.1529 20.6851 31.3376C20.7535 31.4402 20.904 31.5907 21.0066 31.6591C21.1913 31.7822 21.3897 31.7891 24.6936 31.7891C27.9975 31.7891 28.1958 31.7822 28.3805 31.6591C28.4831 31.5907 28.6336 31.4402 28.702 31.3376C28.8251 31.1529 28.832 30.9545 28.832 27.6507C28.832 24.3468 28.8251 24.1484 28.702 23.9637C28.6336 23.8611 28.4831 23.7106 28.3805 23.6422C28.1958 23.5191 27.9975 23.5123 24.6936 23.5123C21.3897 23.5123 21.1913 23.5191 21.0066 23.6422ZM26.7799 27.6507V29.737H24.6936H22.6073V27.6507V25.5644H24.6936H26.7799V27.6507Z" fill="url(#paint6_linear_34717_14645)"/>
<defs>
<linearGradient id="paint0_linear_34717_14645" x1="17.4771" y1="35.8848" x2="17.4771" y2="0.884766" gradientUnits="userSpaceOnUse">
<stop offset="0.452535" stop-color="#FFA588"/>
<stop offset="1" stop-color="#F36A3E"/>
</linearGradient>
<linearGradient id="paint1_linear_34717_14645" x1="7.21648" y1="7.02734" x2="7.21648" y2="4.97524" gradientUnits="userSpaceOnUse">
<stop offset="0.452535" stop-color="#FFA588"/>
<stop offset="1" stop-color="#F36A3E"/>
</linearGradient>
<linearGradient id="paint2_linear_34717_14645" x1="11.321" y1="7.02734" x2="11.321" y2="4.97524" gradientUnits="userSpaceOnUse">
<stop offset="0.452535" stop-color="#FFA588"/>
<stop offset="1" stop-color="#F36A3E"/>
</linearGradient>
<linearGradient id="paint3_linear_34717_14645" x1="15.425" y1="7.02734" x2="15.425" y2="4.97524" gradientUnits="userSpaceOnUse">
<stop offset="0.452535" stop-color="#FFA588"/>
<stop offset="1" stop-color="#F36A3E"/>
</linearGradient>
<linearGradient id="paint4_linear_34717_14645" x1="17.5112" y1="21.459" x2="17.5112" y2="13.1822" gradientUnits="userSpaceOnUse">
<stop offset="0.452535" stop-color="#FFA588"/>
<stop offset="1" stop-color="#F36A3E"/>
</linearGradient>
<linearGradient id="paint5_linear_34717_14645" x1="12.3467" y1="31.7891" x2="12.3467" y2="23.5123" gradientUnits="userSpaceOnUse">
<stop offset="0.452535" stop-color="#FFA588"/>
<stop offset="1" stop-color="#F36A3E"/>
</linearGradient>
<linearGradient id="paint6_linear_34717_14645" x1="24.6936" y1="31.7891" x2="24.6936" y2="23.5123" gradientUnits="userSpaceOnUse">
<stop offset="0.452535" stop-color="#FFA588"/>
<stop offset="1" stop-color="#F36A3E"/>
</linearGradient>
</defs>
</svg>
