<svg width="45" height="33" viewBox="0 0 45 33" fill="none" xmlns="http://www.w3.org/2000/svg">
<path d="M21.6836 0.204326C21.3571 0.307456 20.9617 0.462152 20.8242 0.530905C20.343 0.78873 19.5351 1.44189 19.2773 1.79425L19.0195 2.13801L10.855 2.1638L2.69053 2.18958L2.20067 2.42162C1.60767 2.69664 1.03186 3.25526 0.748252 3.82247C0.567775 4.19202 0.541992 4.3725 0.541992 5.15457C0.541992 5.9968 0.559181 6.09133 0.799817 6.51245C1.1264 7.11404 1.76236 7.68125 2.35536 7.89611C2.81945 8.07658 2.96555 8.07658 10.855 8.07658H18.8819L19.5523 8.74693C21.1938 10.3798 23.4626 10.758 25.5768 9.74385C26.0667 9.50322 26.3933 9.26258 26.9003 8.75552L27.5792 8.07658H34.8757C42.026 8.07658 42.1807 8.07658 42.6448 7.89611C43.2378 7.68125 43.8738 7.11404 44.2004 6.51245C44.441 6.09133 44.4582 5.9968 44.4582 5.15457C44.4582 4.3725 44.4324 4.19202 44.2519 3.82247C43.9683 3.25526 43.3925 2.69664 42.7995 2.42162L42.3097 2.18958L34.8757 2.1638L27.4417 2.13801L27.2011 1.80284C26.737 1.14109 25.5338 0.384804 24.5369 0.118384C23.815 -0.0706873 22.397 -0.0277166 21.6836 0.204326ZM24.769 1.88019C26.2042 2.58491 27.055 4.16624 26.7972 5.65303C26.4534 7.63828 24.5885 9.02194 22.6978 8.70396C20.3687 8.30003 18.9851 5.83351 19.9132 3.72794C20.3344 2.79117 21.1336 2.04348 22.0876 1.69971C22.4399 1.57939 22.7321 1.54502 23.3681 1.5708C24.0986 1.58799 24.2533 1.62236 24.769 1.88019ZM18.1858 4.01154C18.0741 4.41547 18.0483 5.47255 18.1428 6.07414L18.2116 6.52963H10.6144H3.01711L2.72491 6.33197C2.22645 5.9968 2.02878 5.61865 2.06316 5.06003C2.10613 4.47563 2.36396 4.0803 2.85382 3.85685C3.189 3.70215 3.57573 3.69356 10.7433 3.69356H18.2718L18.1858 4.01154ZM42.155 3.87404C42.662 4.12327 42.8941 4.47563 42.937 5.06003C42.9714 5.61865 42.7737 5.9968 42.2753 6.33197L41.9831 6.52963H35.1163H28.2496L28.3183 6.07414C28.4043 5.49833 28.4043 4.8108 28.3183 4.18343L28.2496 3.69356H35.0132C41.6995 3.69356 41.7854 3.69356 42.155 3.87404Z" fill="url(#paint0_linear_34717_14615)"/>
<path d="M11.5941 11.137C10.7776 11.3519 9.95261 11.8503 9.29086 12.5121L8.67208 13.1394L5.6813 13.1652L2.69053 13.191L2.20067 13.4231C1.60767 13.6981 1.03186 14.2567 0.748252 14.8239C0.567775 15.1935 0.541992 15.3739 0.541992 16.156C0.541992 16.9982 0.559181 17.0928 0.799817 17.5139C1.1264 18.1155 1.76236 18.6827 2.35536 18.8975C2.79366 19.0694 3.00852 19.078 5.76725 19.078H8.70645L8.99865 19.439C9.90104 20.5648 11.4824 21.3125 12.9606 21.3125C14.4216 21.3125 16.1404 20.5132 16.9311 19.4648L17.2147 19.0866L29.6934 19.078C42.069 19.078 42.1807 19.078 42.6448 18.8975C43.2378 18.6827 43.8738 18.1155 44.2004 17.5139C44.441 17.0928 44.4582 16.9982 44.4582 16.156C44.4582 15.3739 44.4324 15.1935 44.2519 14.8239C43.9683 14.2567 43.3925 13.6981 42.7995 13.4231L42.3097 13.191L29.7879 13.1652L17.2748 13.148L16.6389 12.5121C15.9599 11.8245 15.1521 11.3519 14.2755 11.1284C13.6567 10.9651 12.2129 10.9737 11.5941 11.137ZM14.138 12.7269C16.7592 13.7067 17.4123 17.0154 15.3326 18.846C14.5677 19.5249 13.3645 19.8687 12.3848 19.6882C9.54009 19.164 8.37987 15.795 10.3222 13.6895C11.2675 12.6668 12.8746 12.2628 14.138 12.7269ZM7.91579 15.013C7.82985 15.4169 7.82985 16.8779 7.90719 17.2475L7.97595 17.5311H5.49223C3.06008 17.5311 3.00852 17.5311 2.72491 17.3334C2.22645 16.9982 2.02878 16.6201 2.06316 16.0615C2.10613 15.4771 2.36396 15.0817 2.85382 14.8583C3.17181 14.7122 3.45542 14.695 5.59536 14.695H7.98454L7.91579 15.013ZM42.155 14.8755C42.662 15.1247 42.8941 15.4771 42.937 16.0615C42.9714 16.6201 42.7737 16.9982 42.2753 17.3334L41.9831 17.5311H29.9598H17.9452L18.0053 17.2904C18.0913 16.9982 18.0913 15.3481 18.0139 14.97L17.9538 14.695H29.8653C41.7682 14.695 41.7854 14.695 42.155 14.8755Z" fill="url(#paint1_linear_34717_14615)"/>
<path d="M30.7849 22.8589C29.6762 23.1425 28.6277 23.7956 28.0691 24.5347L27.7855 24.9129L15.3068 24.9215C2.93117 24.9215 2.81945 24.9215 2.35536 25.102C1.76236 25.3168 1.1264 25.884 0.799817 26.4856C0.559181 26.9067 0.541992 27.0013 0.541992 27.8435C0.541992 28.6256 0.567775 28.806 0.748252 29.1756C1.03186 29.7428 1.60767 30.3014 2.20067 30.5764L2.69053 30.8085L15.2122 30.8343L27.7253 30.8515L28.3613 31.4788C29.427 32.5359 30.5442 33 32.0224 33C33.5178 33 34.6608 32.5273 35.7093 31.4788L36.3367 30.8601L39.3189 30.8343L42.3097 30.8085L42.7995 30.5764C43.3925 30.3014 43.9683 29.7428 44.2519 29.1756C44.4324 28.806 44.4582 28.6256 44.4582 27.8435C44.4582 27.0013 44.441 26.9067 44.2004 26.4856C43.8738 25.884 43.2378 25.3168 42.6448 25.102C42.2065 24.9301 41.9917 24.9215 39.2329 24.9215H36.2937L36.0015 24.5519C34.8069 23.0651 32.6584 22.369 30.7849 22.8589ZM32.7443 24.3285C34.8155 24.7582 36.0961 26.8981 35.4773 28.892C35.1593 29.9233 34.5061 30.671 33.5092 31.1351C32.7873 31.4788 31.713 31.5562 30.9997 31.3241C28.6363 30.5593 27.6824 27.7662 29.109 25.7723C29.4957 25.2309 29.8137 24.9645 30.4669 24.6293C31.2404 24.2425 31.9021 24.1566 32.7443 24.3285ZM26.9862 26.7434C26.9089 27.113 26.9089 28.6599 26.9862 29.0209L27.055 29.3045H15.1263C3.68746 29.3045 3.189 29.2959 2.85382 29.1412C2.36396 28.9178 2.10613 28.5224 2.06316 27.938C2.02878 27.3794 2.22645 27.0013 2.72491 26.6661L3.01711 26.4684H15.0318H27.0464L26.9862 26.7434ZM42.2753 26.6661C42.7737 27.0013 42.9714 27.3794 42.937 27.938C42.8941 28.5224 42.6362 28.9178 42.1464 29.1412C41.8284 29.2873 41.5448 29.3045 39.4048 29.3045H37.0156L37.0844 28.9779C37.1703 28.5826 37.1703 27.1216 37.093 26.7434L37.0328 26.4684H39.5079C41.9401 26.4684 41.9917 26.4684 42.2753 26.6661Z" fill="url(#paint2_linear_34717_14615)"/>
<defs>
<linearGradient id="paint0_linear_34717_14615" x1="22.5001" y1="10.3047" x2="22.5001" y2="-0.000243187" gradientUnits="userSpaceOnUse">
<stop offset="0.452535" stop-color="#FFA588"/>
<stop offset="1" stop-color="#F36A3E"/>
</linearGradient>
<linearGradient id="paint1_linear_34717_14615" x1="22.5001" y1="21.3125" x2="22.5001" y2="11.0102" gradientUnits="userSpaceOnUse">
<stop offset="0.452535" stop-color="#FFA588"/>
<stop offset="1" stop-color="#F36A3E"/>
</linearGradient>
<linearGradient id="paint2_linear_34717_14615" x1="22.5001" y1="33" x2="22.5001" y2="22.7035" gradientUnits="userSpaceOnUse">
<stop offset="0.452535" stop-color="#FFA588"/>
<stop offset="1" stop-color="#F36A3E"/>
</linearGradient>
</defs>
</svg>
