<svg width="47" height="36" viewBox="0 0 47 36" fill="none" xmlns="http://www.w3.org/2000/svg">
<path d="M46.5021 3.60645C46.1558 2.6859 45.6454 2.03878 44.8889 1.55572C43.9045 0.926827 44.4787 0.963284 34.6899 0.963284C26.4414 0.963284 25.8307 0.981513 25.6484 1.12734C25.5391 1.20937 25.4023 1.37343 25.3477 1.4828C25.2018 1.76535 25.2018 35.1604 25.3477 35.443C25.4023 35.5523 25.5391 35.7164 25.6484 35.7984C25.8216 35.9443 26.25 35.9625 31.0897 35.9625H36.3396L36.6951 35.6982C37.1143 35.3792 46.3016 26.1737 46.5204 25.8455C46.6571 25.645 46.6662 24.6698 46.6571 14.8171C46.6571 4.95538 46.6388 3.98014 46.5021 3.60645ZM41.3981 24.2961C37.7888 24.2961 37.6794 24.3143 36.7771 24.8885C36.0024 25.3898 35.4464 26.1007 35.1547 26.9757C35.018 27.3676 34.9998 27.8872 34.9998 30.6944V33.9573H31.1262H27.2526L27.2526 18.4629L27.2526 2.96845L35.1821 2.96845C43.859 2.96845 43.467 2.9411 44.0595 3.49708C44.2053 3.6338 44.3967 3.90723 44.4878 4.10774C44.6519 4.45409 44.661 4.92804 44.661 14.3888L44.661 24.2961H41.3981ZM37.0232 30.2478C36.9958 27.7596 37.0323 27.4861 37.488 26.9666C38.0349 26.3377 38.2172 26.3013 40.8786 26.3013H43.2483L40.1494 29.4001L37.0505 32.499L37.0232 30.2478Z" fill="url(#paint0_linear_34717_14637)"/>
<path d="M34.8815 17.9443C34.7721 17.7438 31.0899 14.9183 30.6251 14.6813C29.7228 14.2165 28.8387 15.0915 29.2671 16.0303C29.3218 16.1488 30.0144 16.7321 30.8165 17.3336C31.6095 17.9261 32.2657 18.4365 32.2657 18.4638C32.2657 18.4912 31.5912 19.0107 30.7709 19.6304C29.9415 20.2502 29.2488 20.8153 29.2215 20.8973C29.1212 21.1343 29.1668 21.7997 29.2853 21.9455C29.6316 22.3739 30.1512 22.4924 30.6251 22.2463C31.0899 22.0093 34.7721 19.1838 34.8815 18.9833C34.9453 18.874 34.9909 18.637 34.9909 18.4638C34.9909 18.2906 34.9453 18.0537 34.8815 17.9443Z" fill="url(#paint1_linear_34717_14637)"/>
<path d="M21.3101 1.46418C21.2554 1.36392 21.1278 1.20898 21.0185 1.12695C20.8362 0.981119 20.2255 0.962891 11.977 0.962891C3.96547 0.962891 3.09049 0.981119 2.68034 1.11784C1.80536 1.4095 1.09444 1.96547 0.593147 2.74019C-0.0448598 3.73366 0.000712061 2.53056 0.000712061 18.4625C0.000712061 31.6237 0.00982644 32.8723 0.155656 33.2825C0.447317 34.1575 1.00329 34.8684 1.77802 35.3697C2.75325 35.9986 2.17905 35.9621 11.977 35.9621C20.2255 35.9621 20.8362 35.9439 21.0185 35.798C21.1278 35.716 21.2646 35.552 21.3192 35.4426C21.4651 35.16 21.456 1.7285 21.3101 1.46418ZM11.4666 33.9569C3.91989 33.9569 3.49152 33.9478 3.14517 33.7838C2.69857 33.5741 2.33399 33.2004 2.15171 32.7538C2.0241 32.4531 2.00588 30.8672 2.00588 18.4625C2.00588 6.05783 2.0241 4.47193 2.15171 4.17115C2.33399 3.72455 2.69857 3.35086 3.14517 3.14123C3.49152 2.97717 3.91989 2.96805 11.4666 2.96805L19.4143 2.96805L19.4143 18.4625L19.4143 33.9569L11.4666 33.9569Z" fill="url(#paint2_linear_34717_14637)"/>
<path d="M17.4273 15.0625C17.327 14.8255 16.8622 14.543 16.5614 14.543C16.4247 14.543 16.1877 14.6068 16.0419 14.6797C15.6682 14.8711 12.0225 17.6236 11.8311 17.8606C11.7308 17.9791 11.667 18.2069 11.667 18.4622C11.667 18.7174 11.7308 18.9452 11.8311 19.0637C12.0225 19.3007 15.6682 22.0532 16.0419 22.2446C16.9442 22.7095 17.8283 21.8345 17.3999 20.8957C17.3452 20.7772 16.6526 20.1939 15.8505 19.5923C15.0575 18.9999 14.4013 18.4895 14.4013 18.4622C14.4013 18.4348 15.0575 17.9244 15.8505 17.332C16.6526 16.7304 17.3452 16.1471 17.3999 16.0286C17.5093 15.7825 17.5184 15.3086 17.4273 15.0625Z" fill="url(#paint3_linear_34717_14637)"/>
<defs>
<linearGradient id="paint0_linear_34717_14637" x1="25.2383" y1="18.4627" x2="46.6596" y2="18.4627" gradientUnits="userSpaceOnUse">
<stop offset="0.452535" stop-color="#FFA588"/>
<stop offset="1" stop-color="#F36A3E"/>
</linearGradient>
<linearGradient id="paint1_linear_34717_14637" x1="29.1558" y1="18.4629" x2="34.9909" y2="18.4629" gradientUnits="userSpaceOnUse">
<stop offset="0.452535" stop-color="#FFA588"/>
<stop offset="1" stop-color="#F36A3E"/>
</linearGradient>
<linearGradient id="paint2_linear_34717_14637" x1="0" y1="18.4627" x2="21.4242" y2="18.4627" gradientUnits="userSpaceOnUse">
<stop offset="0.452535" stop-color="#FFA588"/>
<stop offset="1" stop-color="#F36A3E"/>
</linearGradient>
<linearGradient id="paint3_linear_34717_14637" x1="11.667" y1="18.4581" x2="17.5112" y2="18.4581" gradientUnits="userSpaceOnUse">
<stop offset="0.452535" stop-color="#FFA588"/>
<stop offset="1" stop-color="#F36A3E"/>
</linearGradient>
</defs>
</svg>
